<svg xmlns="http://www.w3.org/2000/svg" xmlns:xlink="http://www.w3.org/1999/xlink" width="2000" zoomAndPan="magnify" viewBox="0 0 1500 1499.999933" height="2000" preserveAspectRatio="xMidYMid meet" version="1.0"><path fill="#adede6" d="M 247.363281 804.074219 C 343.371094 697.925781 162.472656 500.214844 207.449219 357.355469 C 268 165.042969 760.597656 0.15625 1092.164062 209.523438 C 1369.820312 384.863281 1466.238281 779.53125 1344.9375 939.050781 C 1308.625 986.796875 1263.457031 999.496094 1204.117188 1049.425781 C 1148.914062 1095.875 1142.707031 1107.734375 1138.726562 1115.8125 C 1099.464844 1195.578125 1182.03125 1265.574219 1165.410156 1333.984375 C 1139.164062 1442.082031 876.617188 1499.746094 657.074219 1463.167969 C 597.863281 1453.300781 297.84375 1395.933594 187.492188 1157.589844 C 178.953125 1139.148438 98.160156 961.019531 174.1875 861.921875 C 200.550781 827.558594 221.765625 832.375 247.363281 804.074219 " fill-opacity="1" fill-rule="nonzero"/><path fill="#00d7c0" d="M 1226.070312 368.445312 C 1198.261719 340.992188 1197.84375 296.058594 1225.148438 268.085938 C 1252.449219 240.117188 1297.128906 239.707031 1324.941406 267.160156 C 1352.746094 294.625 1353.15625 339.558594 1325.855469 367.523438 C 1298.554688 395.496094 1253.878906 395.910156 1226.070312 368.445312 " fill-opacity="1" fill-rule="nonzero"/><path fill="#ffffff" d="M 1323.316406 314.003906 L 1275.378906 363.109375 C 1272.847656 365.710938 1268.691406 365.746094 1266.101562 363.195312 L 1232.390625 329.898438 C 1229.804688 327.347656 1229.765625 323.171875 1232.308594 320.570312 L 1280.234375 271.46875 C 1282.773438 268.871094 1286.921875 268.832031 1289.511719 271.382812 L 1323.230469 304.679688 C 1325.820312 307.230469 1325.859375 311.402344 1323.316406 314.003906 " fill-opacity="1" fill-rule="nonzero"/><path fill="#000000" d="M 1284.90625 271.96875 C 1284.894531 271.96875 1284.886719 271.96875 1284.871094 271.96875 C 1283.78125 271.976562 1282.757812 272.410156 1281.992188 273.195312 L 1234.054688 322.296875 C 1232.46875 323.929688 1232.488281 326.554688 1234.105469 328.164062 L 1267.828125 361.449219 C 1268.613281 362.226562 1269.691406 362.597656 1270.722656 362.632812 C 1271.820312 362.621094 1272.84375 362.179688 1273.609375 361.394531 L 1321.546875 312.292969 C 1323.132812 310.667969 1323.117188 308.035156 1321.488281 306.4375 L 1287.78125 273.140625 C 1287.007812 272.382812 1285.984375 271.96875 1284.90625 271.96875 Z M 1270.683594 367.554688 C 1268.308594 367.554688 1266.066406 366.636719 1264.375 364.949219 L 1230.648438 331.664062 C 1227.101562 328.164062 1227.054688 322.417969 1230.535156 318.859375 L 1278.464844 269.761719 C 1280.15625 268.03125 1282.40625 267.066406 1284.832031 267.035156 C 1287.320312 267.027344 1289.515625 267.945312 1291.238281 269.636719 L 1324.953125 302.9375 C 1328.5 306.425781 1328.546875 312.171875 1325.066406 315.738281 L 1277.136719 364.835938 C 1275.445312 366.570312 1273.183594 367.535156 1270.769531 367.554688 C 1270.75 367.554688 1270.722656 367.554688 1270.683594 367.554688 " fill-opacity="1" fill-rule="nonzero"/><path fill="#000000" d="M 1249.347656 328.109375 C 1248.210938 328.109375 1247.191406 327.328125 1246.941406 326.171875 C 1246.648438 324.851562 1247.492188 323.539062 1248.820312 323.242188 L 1279.414062 316.554688 C 1280.742188 316.257812 1282.054688 317.101562 1282.339844 318.425781 C 1282.632812 319.753906 1281.789062 321.066406 1280.46875 321.363281 L 1249.871094 328.054688 C 1249.695312 328.09375 1249.523438 328.109375 1249.347656 328.109375 " fill-opacity="1" fill-rule="nonzero"/><path fill="#000000" d="M 1280.0625 321.292969 C 1279.917969 321.292969 1279.75 321.277344 1279.59375 321.238281 C 1278.253906 320.980469 1277.390625 319.679688 1277.648438 318.351562 L 1283.75 287.460938 C 1284.007812 286.125 1285.316406 285.257812 1286.636719 285.523438 C 1287.972656 285.785156 1288.839844 287.085938 1288.582031 288.410156 L 1282.484375 319.300781 C 1282.257812 320.472656 1281.214844 321.292969 1280.0625 321.292969 " fill-opacity="1" fill-rule="nonzero"/><path fill="#00d7c0" d="M 1206.804688 203.449219 C 1206.804688 239.171875 1177.839844 268.136719 1142.121094 268.136719 C 1106.398438 268.136719 1077.429688 239.171875 1077.429688 203.449219 C 1077.429688 167.730469 1106.398438 138.765625 1142.121094 138.765625 C 1177.839844 138.765625 1206.804688 167.730469 1206.804688 203.449219 " fill-opacity="1" fill-rule="nonzero"/><path fill="#ffffff" d="M 1169.207031 198.164062 L 1134.570312 174.683594 C 1130.320312 171.808594 1124.585938 174.851562 1124.585938 179.976562 L 1124.585938 226.929688 C 1124.585938 232.0625 1130.320312 235.105469 1134.570312 232.21875 L 1169.207031 208.746094 C 1172.945312 206.210938 1172.945312 200.691406 1169.207031 198.164062 " fill-opacity="1" fill-rule="nonzero"/><path fill="#ffffff" d="M 1122.328125 684.609375 L 72.699219 684.609375 C 49.53125 684.609375 34.132812 703 38.304688 725.6875 L 167.890625 1430.476562 C 172.0625 1453.175781 194.226562 1471.5625 217.390625 1471.5625 L 1267.023438 1471.5625 C 1290.1875 1471.5625 1305.585938 1453.175781 1301.417969 1430.476562 L 1171.824219 725.6875 C 1167.65625 703 1145.492188 684.609375 1122.328125 684.609375 " fill-opacity="1" fill-rule="nonzero"/><path fill="#000000" d="M 72.695312 687.070312 C 62.203125 687.070312 53.105469 691.050781 47.085938 698.289062 C 41.105469 705.46875 38.847656 715.042969 40.726562 725.25 L 170.308594 1430.035156 C 174.269531 1451.578125 195.390625 1469.105469 217.390625 1469.105469 L 1267.007812 1469.105469 C 1277.507812 1469.105469 1286.597656 1465.121094 1292.621094 1457.894531 C 1298.609375 1450.714844 1300.863281 1441.136719 1298.988281 1430.925781 L 1169.398438 726.136719 C 1165.445312 704.597656 1144.320312 687.070312 1122.320312 687.070312 Z M 1267.007812 1474.027344 L 217.390625 1474.027344 C 193.128906 1474.027344 169.835938 1454.691406 165.46875 1430.925781 L 35.882812 726.136719 C 33.734375 714.464844 36.371094 703.464844 43.304688 695.136719 C 50.277344 686.761719 60.714844 682.15625 72.695312 682.15625 L 1122.320312 682.15625 C 1146.582031 682.15625 1169.875 701.484375 1174.25 725.25 L 1303.828125 1430.035156 C 1305.972656 1441.714844 1303.34375 1452.722656 1296.40625 1461.046875 C 1289.433594 1469.417969 1279 1474.027344 1267.007812 1474.027344 " fill-opacity="1" fill-rule="nonzero"/><path fill="#5ae4d5" d="M 218.570312 1448.558594 C 204.625 1448.558594 191.253906 1437.527344 188.761719 1423.949219 L 61.320312 730.835938 C 58.824219 717.265625 68.136719 706.226562 82.082031 706.226562 L 1120.886719 706.226562 C 1134.832031 706.226562 1148.210938 717.265625 1150.703125 730.835938 L 1278.140625 1423.949219 C 1280.636719 1437.527344 1271.320312 1448.558594 1257.386719 1448.558594 L 218.570312 1448.558594 " fill-opacity="1" fill-rule="nonzero"/><path fill="#ffffff" d="M 978.574219 954.054688 L 745.433594 954.054688 C 725.230469 954.054688 711.859375 970.4375 715.582031 990.640625 C 719.292969 1010.847656 738.679688 1027.222656 758.890625 1027.222656 L 992.035156 1027.222656 C 1012.238281 1027.222656 1025.605469 1010.847656 1021.886719 990.640625 C 1018.167969 970.4375 998.785156 954.054688 978.574219 954.054688 " fill-opacity="1" fill-rule="nonzero"/><path fill="#adede6" d="M 1079.734375 1144.503906 L 714.332031 1144.503906 L 704.378906 1090.414062 L 1069.796875 1090.414062 L 1079.734375 1144.503906 " fill-opacity="1" fill-rule="nonzero"/><path fill="#adede6" d="M 1095.886719 1232.328125 L 730.476562 1232.328125 L 720.527344 1178.246094 L 1085.941406 1178.246094 L 1095.886719 1232.328125 " fill-opacity="1" fill-rule="nonzero"/><path fill="#ffffff" d="M 482.871094 371.230469 C 471.683594 371.230469 461.949219 375.53125 455.457031 383.320312 C 448.800781 391.3125 446.296875 402.042969 448.40625 413.527344 L 530.257812 858.707031 C 534.636719 882.515625 557.554688 901.886719 581.34375 901.886719 L 851.921875 901.886719 C 863.109375 901.886719 872.84375 897.589844 879.339844 889.796875 C 885.992188 881.804688 888.496094 871.078125 886.386719 859.597656 L 804.535156 414.410156 C 800.152344 390.605469 777.242188 371.230469 753.453125 371.230469 Z M 851.921875 906.808594 L 581.34375 906.808594 C 555.292969 906.808594 530.207031 885.628906 525.417969 859.597656 L 443.5625 414.417969 C 441.183594 401.472656 444.066406 389.300781 451.675781 380.171875 C 459.121094 371.230469 470.199219 366.3125 482.871094 366.3125 L 753.453125 366.3125 C 779.5 366.3125 804.589844 387.488281 809.378906 413.527344 L 891.234375 858.707031 C 893.613281 871.652344 890.734375 883.8125 883.117188 892.949219 C 875.679688 901.886719 864.597656 906.808594 851.921875 906.808594 " fill-opacity="1" fill-rule="nonzero"/><path fill="#00d7c0" d="M 851.917969 906.808594 L 840.828125 906.808594 C 839.46875 906.808594 838.367188 905.710938 838.367188 904.347656 C 838.367188 902.988281 839.46875 901.890625 840.828125 901.890625 L 851.917969 901.890625 C 863.105469 901.890625 872.84375 897.589844 879.335938 889.800781 C 885.996094 881.808594 888.492188 871.082031 886.382812 859.597656 L 866.628906 752.164062 C 866.382812 750.824219 867.269531 749.539062 868.605469 749.292969 C 869.953125 749.042969 871.230469 749.933594 871.476562 751.273438 L 891.226562 858.707031 C 893.605469 871.652344 890.730469 883.816406 883.117188 892.953125 C 875.675781 901.890625 864.589844 906.808594 851.917969 906.808594 " fill-opacity="1" fill-rule="nonzero"/><path fill="#00d7c0" d="M 849.335938 646.957031 C 848.175781 646.957031 847.128906 646.125 846.917969 644.941406 L 804.535156 414.417969 C 800.152344 390.605469 777.242188 371.230469 753.453125 371.230469 L 482.871094 371.230469 C 471.683594 371.230469 461.949219 375.53125 455.457031 383.320312 C 448.800781 391.3125 446.296875 402.042969 448.40625 413.527344 L 468.847656 524.695312 C 469.09375 526.03125 468.207031 527.3125 466.871094 527.558594 C 465.527344 527.8125 464.25 526.921875 464.003906 525.589844 L 443.5625 414.417969 C 441.183594 401.472656 444.066406 389.300781 451.675781 380.171875 C 459.121094 371.230469 470.199219 366.3125 482.871094 366.3125 L 753.453125 366.3125 C 779.5 366.3125 804.589844 387.488281 809.378906 413.527344 L 851.765625 644.046875 C 852.011719 645.390625 851.128906 646.664062 849.789062 646.910156 C 849.640625 646.941406 849.484375 646.957031 849.335938 646.957031 " fill-opacity="1" fill-rule="nonzero"/><path fill="#ffffff" d="M 557.941406 508.804688 C 549.183594 461.214844 580.640625 422.632812 628.195312 422.632812 C 675.75 422.632812 721.398438 461.214844 730.140625 508.804688 C 738.894531 556.402344 707.441406 594.980469 659.886719 594.980469 C 612.335938 594.980469 566.6875 556.402344 557.941406 508.804688 " fill-opacity="1" fill-rule="nonzero"/><path fill="#adede6" d="M 659.886719 597.457031 C 611.277344 597.457031 564.457031 557.886719 555.515625 509.257812 C 553.589844 498.804688 553.515625 488.554688 555.277344 478.804688 C 555.523438 477.472656 556.800781 476.582031 558.140625 476.820312 C 559.476562 477.0625 560.371094 478.339844 560.125 479.683594 C 558.464844 488.84375 558.539062 498.496094 560.355469 508.363281 C 568.886719 554.765625 613.535156 592.523438 659.886719 592.523438 C 681.859375 592.523438 701.007812 584.058594 713.796875 568.703125 C 726.933594 552.941406 731.875 531.828125 727.722656 509.257812 C 719.191406 462.851562 674.542969 425.097656 628.195312 425.097656 C 603.207031 425.097656 581.820312 436.148438 569.527344 455.417969 C 568.800781 456.570312 567.277344 456.898438 566.132812 456.167969 C 564.984375 455.441406 564.644531 453.917969 565.378906 452.773438 C 578.597656 432.054688 601.492188 420.171875 628.195312 420.171875 C 676.804688 420.171875 723.625 459.738281 732.566406 508.363281 C 736.980469 532.402344 731.664062 554.949219 717.578125 571.855469 C 703.835938 588.359375 683.34375 597.457031 659.886719 597.457031 " fill-opacity="1" fill-rule="nonzero"/><path fill="#adede6" d="M 632.300781 452.125 C 632.300781 452.125 614.136719 439.027344 598.488281 466.410156 C 584.667969 490.574219 612.035156 512.238281 606.945312 527.28125 C 601.84375 542.332031 576.710938 550.53125 576.710938 550.53125 C 576.710938 550.53125 588.390625 567.636719 600.371094 575.15625 L 712.78125 575.15625 C 712.78125 575.15625 731.367188 549.851562 730.042969 542.671875 C 730.042969 542.671875 704.855469 541.300781 699.1875 519.753906 C 693.515625 498.21875 700.535156 484.769531 674.78125 460.425781 C 648.105469 435.222656 632.300781 452.125 632.300781 452.125 " fill-opacity="1" fill-rule="nonzero"/><path fill="#5ae4d5" d="M 596.5 571.484375 C 614.59375 586.046875 637.015625 594.992188 659.886719 594.992188 C 682.761719 594.992188 701.890625 586.046875 714.632812 571.484375 C 695.777344 565.953125 675.164062 562.839844 653.976562 562.839844 C 632.789062 562.839844 613.320312 565.953125 596.5 571.484375 " fill-opacity="1" fill-rule="nonzero"/><path fill="#adede6" d="M 601.746094 572.421875 C 619.351562 585.414062 639.832031 592.523438 659.886719 592.523438 C 679.757812 592.523438 697.421875 585.53125 710.085938 572.753906 C 691.941406 567.804688 673.082031 565.308594 653.976562 565.308594 C 635.296875 565.308594 617.753906 567.691406 601.746094 572.421875 Z M 659.886719 597.449219 C 637.289062 597.449219 614.226562 588.910156 594.953125 573.394531 C 594.253906 572.828125 593.914062 571.929688 594.074219 571.035156 C 594.238281 570.152344 594.871094 569.425781 595.726562 569.144531 C 613.417969 563.328125 633.011719 560.375 653.976562 560.375 C 674.910156 560.375 695.546875 563.320312 715.328125 569.121094 C 716.132812 569.347656 716.761719 569.984375 716.996094 570.792969 C 717.234375 571.59375 717.039062 572.464844 716.488281 573.105469 C 702.75 588.804688 682.648438 597.449219 659.886719 597.449219 " fill-opacity="1" fill-rule="nonzero"/><path fill="#ffffff" d="M 657.167969 577.40625 C 649.65625 577.40625 642.453125 571.3125 641.070312 563.804688 L 628.324219 494.449219 L 655.5 494.449219 L 668.257812 563.804688 C 669.632812 571.3125 664.671875 577.40625 657.167969 577.40625 " fill-opacity="1" fill-rule="nonzero"/><path fill="#adede6" d="M 631.28125 496.90625 L 643.496094 563.359375 C 644.667969 569.746094 650.800781 574.941406 657.167969 574.941406 C 660.007812 574.941406 662.464844 573.875 664.082031 571.929688 C 665.753906 569.921875 666.378906 567.195312 665.835938 564.25 L 653.449219 496.90625 Z M 657.167969 579.871094 C 648.542969 579.871094 640.242188 572.859375 638.65625 564.25 L 625.898438 494.890625 C 625.773438 494.171875 625.964844 493.4375 626.4375 492.871094 C 626.902344 492.3125 627.59375 491.984375 628.324219 491.984375 L 655.5 491.984375 C 656.691406 491.984375 657.710938 492.832031 657.925781 494 L 670.671875 563.359375 C 671.484375 567.765625 670.488281 571.929688 667.863281 575.082031 C 665.292969 578.164062 661.492188 579.871094 657.167969 579.871094 " fill-opacity="1" fill-rule="nonzero"/><path fill="#ffffff" d="M 651.175781 542.667969 C 666.460938 542.667969 676.566406 530.257812 673.757812 514.964844 L 670.761719 498.652344 C 668.039062 483.863281 653.863281 471.875 639.089844 471.875 L 610.484375 471.875 L 618.410156 514.964844 C 620.460938 526.171875 628.890625 535.828125 639.269531 540.1875 L 651.175781 542.667969 " fill-opacity="1" fill-rule="nonzero"/><path fill="#adede6" d="M 651.175781 545.132812 C 649.8125 545.132812 648.707031 544.023438 648.707031 542.667969 C 648.707031 541.308594 649.8125 540.207031 651.175781 540.207031 C 657.726562 540.207031 663.425781 537.695312 667.21875 533.148438 C 671.121094 528.464844 672.582031 522.171875 671.332031 515.414062 L 668.339844 499.097656 C 665.828125 485.449219 652.707031 474.339844 639.085938 474.339844 L 613.445312 474.339844 L 620.832031 514.523438 C 622.671875 524.5625 630.289062 533.746094 640.21875 537.921875 C 641.472656 538.449219 642.058594 539.890625 641.53125 541.140625 C 641.003906 542.394531 639.5625 542.984375 638.3125 542.464844 C 626.886719 537.65625 618.125 527.039062 615.984375 515.414062 L 608.058594 472.320312 C 607.929688 471.601562 608.125 470.867188 608.59375 470.304688 C 609.0625 469.742188 609.757812 469.417969 610.480469 469.417969 L 639.085938 469.417969 C 654.96875 469.417969 670.261719 482.332031 673.179688 498.207031 L 676.179688 514.523438 C 677.6875 522.742188 675.855469 530.480469 671.007812 536.300781 C 666.265625 541.996094 659.214844 545.132812 651.175781 545.132812 " fill-opacity="1" fill-rule="nonzero"/><path fill="#adede6" d="M 640.050781 472.902344 L 616.671875 499.914062 L 611.511719 471.875 C 611.511719 471.875 640.179688 473.582031 640.050781 472.902344 " fill-opacity="1" fill-rule="nonzero"/><path fill="#adede6" d="M 785.527344 750.429688 L 570.734375 750.429688 C 565.78125 750.429688 561.03125 746.417969 560.117188 741.464844 L 560.117188 741.457031 C 559.210938 736.507812 562.480469 732.492188 567.433594 732.492188 L 782.234375 732.492188 C 787.183594 732.492188 791.933594 736.507812 792.839844 741.457031 L 792.839844 741.464844 C 793.753906 746.417969 790.476562 750.429688 785.527344 750.429688 " fill-opacity="1" fill-rule="nonzero"/><path fill="#adede6" d="M 830.785156 797.375 L 577.710938 797.375 C 572.761719 797.375 568.011719 793.359375 567.105469 788.410156 L 567.105469 788.402344 C 566.191406 783.453125 569.46875 779.4375 574.417969 779.4375 L 827.484375 779.4375 C 832.433594 779.4375 837.183594 783.453125 838.089844 788.402344 L 838.097656 788.410156 C 839.003906 793.359375 835.726562 797.375 830.785156 797.375 " fill-opacity="1" fill-rule="nonzero"/><path fill="#5ae4d5" d="M 738.121094 666.613281 L 628.113281 666.613281 C 620.800781 666.613281 613.773438 660.679688 612.429688 653.367188 L 612.429688 653.351562 C 611.082031 646.039062 615.921875 640.105469 623.238281 640.105469 L 733.246094 640.105469 C 740.566406 640.105469 747.582031 646.039062 748.929688 653.351562 L 748.9375 653.367188 C 750.28125 660.679688 745.433594 666.613281 738.121094 666.613281 " fill-opacity="1" fill-rule="nonzero"/><path fill="#00d7c0" d="M 417.449219 191.492188 C 414.246094 191.492188 97.199219 191.613281 92.328125 191.84375 C 80.808594 193.226562 70.816406 198.855469 64.3125 207.679688 C 57.464844 216.972656 54.980469 229.105469 57.320312 241.824219 L 153.660156 765.78125 C 158.851562 794.023438 186.042969 817.007812 214.269531 817.007812 L 533.363281 817.007812 C 546.679688 817.007812 558.269531 811.894531 565.996094 802.609375 C 573.921875 793.09375 576.910156 780.328125 574.398438 766.664062 L 478.0625 242.714844 C 472.867188 214.46875 445.675781 191.492188 417.449219 191.492188 Z M 533.363281 821.929688 L 214.269531 821.929688 C 183.78125 821.929688 154.417969 797.136719 148.816406 766.664062 L 52.476562 242.714844 C 49.890625 228.640625 52.6875 215.164062 60.347656 204.753906 C 67.667969 194.828125 78.859375 188.503906 91.875 186.945312 C 93.921875 186.703125 363.441406 186.585938 417.445312 186.566406 C 447.9375 186.566406 477.300781 211.351562 482.90625 241.824219 L 579.238281 765.78125 C 582.019531 780.898438 578.660156 795.101562 569.78125 805.761719 C 561.097656 816.191406 548.164062 821.929688 533.363281 821.929688 " fill-opacity="1" fill-rule="nonzero"/><path fill="#00d7c0" d="M 111.785156 554.128906 C 110.621094 554.128906 109.582031 553.304688 109.367188 552.117188 L 52.476562 242.714844 C 49.890625 228.640625 52.6875 215.164062 60.347656 204.753906 C 67.667969 194.828125 78.859375 188.503906 91.875 186.945312 C 93.921875 186.703125 363.441406 186.585938 417.445312 186.566406 C 447.9375 186.566406 477.300781 211.351562 482.90625 241.824219 L 501.765625 344.414062 C 502.011719 345.746094 501.125 347.039062 499.789062 347.277344 C 498.445312 347.527344 497.167969 346.640625 496.921875 345.304688 L 478.0625 242.714844 C 472.867188 214.46875 445.675781 191.492188 417.449219 191.492188 C 414.246094 191.492188 97.199219 191.613281 92.328125 191.84375 C 80.808594 193.226562 70.816406 198.855469 64.3125 207.679688 C 57.464844 216.984375 54.980469 229.105469 57.320312 241.824219 L 114.210938 551.226562 C 114.453125 552.5625 113.570312 553.851562 112.230469 554.09375 C 112.085938 554.117188 111.933594 554.128906 111.785156 554.128906 " fill-opacity="1" fill-rule="nonzero"/><path fill="#ffffff" d="M 391.304688 821.929688 L 262.746094 821.929688 C 261.386719 821.929688 260.285156 820.828125 260.285156 819.46875 C 260.285156 818.109375 261.386719 817.007812 262.746094 817.007812 L 391.304688 817.007812 C 392.664062 817.007812 393.769531 818.109375 393.769531 819.46875 C 393.769531 820.828125 392.664062 821.929688 391.304688 821.929688 " fill-opacity="1" fill-rule="nonzero"/><path fill="#5ae4d5" d="M 370.359375 534.300781 L 282.851562 534.300781 C 277.035156 534.300781 271.449219 529.585938 270.382812 523.765625 C 269.308594 517.953125 273.160156 513.238281 278.976562 513.238281 L 366.488281 513.238281 C 372.304688 513.238281 377.890625 517.953125 378.957031 523.765625 C 380.027344 529.585938 376.179688 534.300781 370.359375 534.300781 " fill-opacity="1" fill-rule="nonzero"/><path fill="#5ae4d5" d="M 485.988281 592.089844 L 188.472656 592.089844 C 182.65625 592.089844 177.070312 587.371094 176.003906 581.558594 C 174.933594 575.734375 178.78125 571.023438 184.597656 571.023438 L 482.113281 571.023438 C 487.929688 571.023438 493.515625 575.734375 494.582031 581.558594 C 495.65625 587.371094 491.804688 592.089844 485.988281 592.089844 " fill-opacity="1" fill-rule="nonzero"/><path fill="#5ae4d5" d="M 493.445312 632.640625 L 195.929688 632.640625 C 190.113281 632.640625 184.527344 627.929688 183.460938 622.109375 C 182.390625 616.296875 186.238281 611.574219 192.054688 611.574219 L 489.570312 611.574219 C 495.386719 611.574219 500.972656 616.296875 502.039062 622.109375 C 503.113281 627.929688 499.261719 632.640625 493.445312 632.640625 " fill-opacity="1" fill-rule="nonzero"/><path fill="#5ae4d5" d="M 227.316406 420.78125 C 248.632812 437.925781 275.042969 448.449219 301.992188 448.449219 C 328.941406 448.449219 351.476562 437.925781 366.492188 420.78125 C 344.277344 414.269531 319.996094 410.609375 295.035156 410.609375 C 270.070312 410.609375 247.132812 414.269531 227.316406 420.78125 " fill-opacity="1" fill-rule="nonzero"/><path fill="#5ae4d5" d="M 319.085938 352.230469 L 322.742188 320.308594 C 324.121094 308.238281 316.921875 295.238281 305.074219 288.417969 C 299.960938 285.464844 294.351562 283.902344 288.914062 283.902344 L 256.90625 283.902344 C 249.761719 283.902344 243.375 286.601562 239.03125 291.472656 L 237.578125 293.09375 C 230.679688 300.816406 229.972656 312.761719 235.789062 323.445312 L 251.679688 352.648438 L 319.085938 352.230469 " fill-opacity="1" fill-rule="nonzero"/><path fill="#ffffff" d="M 276.742188 298.890625 L 241.3125 298.890625 L 250.964844 351.390625 C 252.957031 362.246094 259.328125 371.90625 269.675781 378.15625 L 274.988281 407.070312 C 277.09375 418.496094 288.050781 427.753906 299.476562 427.753906 C 310.902344 427.753906 318.460938 418.496094 316.359375 407.070312 L 311.1875 378.945312 C 317.703125 372.730469 321.992188 362.699219 319.910156 351.390625 L 316.210938 331.273438 C 312.859375 313.035156 294.976562 298.890625 276.742188 298.890625 " fill-opacity="1" fill-rule="nonzero"/><path fill="#adede6" d="M 298.792969 430.222656 C 286.25 430.222656 274.175781 420.027344 271.875 407.511719 L 266.609375 378.867188 C 266.363281 377.527344 267.246094 376.246094 268.582031 376.003906 C 269.929688 375.75 271.207031 376.644531 271.449219 377.984375 L 276.71875 406.621094 C 278.609375 416.917969 288.511719 425.292969 298.792969 425.292969 C 303.511719 425.292969 307.605469 423.5 310.316406 420.238281 C 313.109375 416.886719 314.152344 412.367188 313.257812 407.511719 L 308.210938 380.050781 C 307.964844 378.710938 308.847656 377.433594 310.1875 377.1875 C 311.527344 376.933594 312.808594 377.820312 313.054688 379.160156 L 318.101562 406.621094 C 319.265625 412.941406 317.84375 418.898438 314.101562 423.386719 C 310.433594 427.792969 304.996094 430.222656 298.792969 430.222656 " fill-opacity="1" fill-rule="nonzero"/><path fill="#5ae4d5" d="M 291.53125 388.015625 C 290.171875 388.015625 289.074219 386.914062 289.074219 385.558594 C 289.074219 384.199219 290.171875 383.09375 291.53125 383.09375 C 299.808594 383.09375 307 379.929688 311.792969 374.171875 C 316.710938 368.265625 318.554688 360.34375 316.992188 351.839844 L 313.292969 331.71875 C 310.148438 314.617188 293.703125 300.710938 276.625 300.710938 L 244.273438 300.710938 L 253.511719 350.941406 C 255.820312 363.515625 265.347656 375.007812 277.785156 380.226562 C 279.039062 380.753906 279.628906 382.199219 279.101562 383.457031 C 278.574219 384.703125 277.128906 385.296875 275.882812 384.773438 C 261.953125 378.921875 251.269531 365.996094 248.667969 351.839844 L 238.898438 298.699219 C 238.765625 297.976562 238.957031 297.238281 239.429688 296.675781 C 239.898438 296.117188 240.585938 295.789062 241.320312 295.789062 L 276.625 295.789062 C 295.960938 295.789062 314.582031 311.503906 318.136719 330.824219 L 321.835938 350.941406 C 323.667969 360.910156 321.441406 370.28125 315.574219 377.332031 C 309.832031 384.222656 301.296875 388.015625 291.53125 388.015625 " fill-opacity="1" fill-rule="nonzero"/><path fill="#5ae4d5" d="M 297.539062 296.976562 L 248.945312 332.824219 L 242.589844 298.242188 C 242.589844 298.242188 297.691406 297.820312 297.539062 296.976562 " fill-opacity="1" fill-rule="nonzero"/><path fill="#adede6" d="M 301.886719 450.832031 C 276.164062 450.832031 249.578125 441.320312 227.132812 423.761719 C 177.863281 385.226562 162.917969 319.421875 193.824219 277.0625 C 223.324219 236.628906 284.644531 231.605469 333.429688 265.632812 C 334.542969 266.414062 334.816406 267.945312 334.039062 269.058594 C 333.261719 270.179688 331.726562 270.449219 330.613281 269.671875 C 284.042969 237.183594 225.707031 241.703125 197.800781 279.957031 C 168.445312 320.195312 182.960938 382.964844 230.164062 419.882812 C 255.648438 439.816406 286.621094 448.980469 315.136719 445 C 337.347656 441.90625 356.398438 430.855469 368.78125 413.890625 C 384.121094 392.855469 388.058594 364.507812 379.59375 336.089844 C 379.207031 334.785156 379.945312 333.414062 381.25 333.027344 C 382.550781 332.644531 383.925781 333.378906 384.3125 334.683594 C 393.222656 364.582031 389.011719 394.515625 372.757812 416.789062 C 359.585938 434.839844 339.363281 446.59375 315.816406 449.878906 C 311.222656 450.519531 306.566406 450.832031 301.886719 450.832031 " fill-opacity="1" fill-rule="nonzero"/><path fill="#ffffff" d="M 584.886719 1350.15625 C 590.425781 1380.285156 573.457031 1404.710938 546.964844 1404.710938 L 259.601562 1404.710938 C 233.117188 1404.710938 207.160156 1380.285156 201.621094 1350.15625 L 98.976562 791.886719 C 93.4375 761.761719 110.410156 737.332031 136.894531 737.332031 L 424.261719 737.332031 C 450.742188 737.332031 476.703125 761.761719 482.242188 791.886719 L 584.886719 1350.15625 " fill-opacity="1" fill-rule="nonzero"/><path fill="#000000" d="M 546.964844 1407.171875 L 259.601562 1407.171875 C 232.03125 1407.171875 204.933594 1381.796875 199.199219 1350.601562 L 96.554688 792.335938 C 93.503906 775.75 96.984375 759.96875 106.097656 749.023438 C 113.703125 739.898438 124.636719 734.871094 136.890625 734.871094 L 424.261719 734.871094 C 451.832031 734.871094 478.929688 760.25 484.660156 791.445312 L 540.574219 1095.515625 C 540.820312 1096.855469 539.9375 1098.140625 538.597656 1098.386719 C 537.25 1098.632812 535.972656 1097.746094 535.726562 1096.410156 L 479.816406 792.335938 C 474.492188 763.367188 449.570312 739.792969 424.261719 739.792969 L 136.890625 739.792969 C 126.125 739.792969 116.53125 744.191406 109.882812 752.179688 C 101.707031 761.992188 98.613281 776.308594 101.394531 791.445312 L 204.042969 1349.710938 C 209.371094 1378.679688 234.292969 1402.253906 259.601562 1402.253906 L 546.964844 1402.253906 C 557.738281 1402.253906 567.328125 1397.851562 573.980469 1389.867188 C 582.15625 1380.054688 585.25 1365.738281 582.460938 1350.601562 L 548.535156 1166.070312 C 548.289062 1164.734375 549.175781 1163.457031 550.511719 1163.207031 C 551.859375 1162.957031 553.136719 1163.851562 553.382812 1165.179688 L 587.308594 1349.710938 C 590.359375 1366.285156 586.878906 1382.078125 577.765625 1393.019531 C 570.160156 1402.148438 559.226562 1407.171875 546.964844 1407.171875 " fill-opacity="1" fill-rule="nonzero"/><path fill="#5ae4d5" d="M 374.445312 1046.90625 L 295.46875 1046.90625 C 290.21875 1046.90625 285.179688 1042.65625 284.214844 1037.398438 C 283.25 1032.152344 286.722656 1027.890625 291.972656 1027.890625 L 370.949219 1027.890625 C 376.199219 1027.890625 381.238281 1032.152344 382.207031 1037.398438 C 383.167969 1042.65625 379.695312 1046.90625 374.445312 1046.90625 " fill-opacity="1" fill-rule="nonzero"/><path fill="#adede6" d="M 479.464844 1102.699219 L 210.964844 1102.699219 C 205.714844 1102.699219 200.675781 1098.445312 199.710938 1093.191406 C 198.746094 1087.941406 202.21875 1083.691406 207.46875 1083.691406 L 475.96875 1083.691406 C 481.21875 1083.691406 486.257812 1087.941406 487.226562 1093.191406 C 488.191406 1098.445312 484.714844 1102.699219 479.464844 1102.699219 " fill-opacity="1" fill-rule="nonzero"/><path fill="#adede6" d="M 487.085938 1144.152344 L 218.585938 1144.152344 C 213.335938 1144.152344 208.296875 1139.890625 207.332031 1134.640625 C 206.367188 1129.394531 209.839844 1125.132812 215.089844 1125.132812 L 483.59375 1125.132812 C 488.84375 1125.132812 493.882812 1129.394531 494.84375 1134.640625 C 495.8125 1139.890625 492.335938 1144.152344 487.085938 1144.152344 " fill-opacity="1" fill-rule="nonzero"/><path fill="#adede6" d="M 463.863281 1269.179688 L 240.882812 1269.179688 C 235.632812 1269.179688 230.59375 1264.917969 229.632812 1259.671875 C 228.664062 1254.425781 232.136719 1250.164062 237.386719 1250.164062 L 460.367188 1250.164062 C 465.617188 1250.164062 470.660156 1254.425781 471.625 1259.671875 C 472.585938 1264.917969 469.113281 1269.179688 463.863281 1269.179688 " fill-opacity="1" fill-rule="nonzero"/><path fill="#adede6" d="M 517.007812 1310.621094 L 248.507812 1310.621094 C 243.257812 1310.621094 238.21875 1306.371094 237.25 1301.125 C 236.289062 1295.867188 239.761719 1291.613281 245.011719 1291.613281 L 513.511719 1291.613281 C 518.761719 1291.613281 523.800781 1295.867188 524.765625 1301.125 C 525.730469 1306.371094 522.257812 1310.621094 517.007812 1310.621094 " fill-opacity="1" fill-rule="nonzero"/><path fill="#adede6" d="M 420.484375 1348.855469 L 255.535156 1348.855469 C 250.285156 1348.855469 245.246094 1344.59375 244.277344 1339.347656 C 243.3125 1334.097656 246.789062 1329.839844 252.039062 1329.839844 L 416.988281 1329.839844 C 422.238281 1329.839844 427.277344 1334.097656 428.242188 1339.347656 C 429.207031 1344.59375 425.734375 1348.855469 420.484375 1348.855469 " fill-opacity="1" fill-rule="nonzero"/><path fill="#adede6" d="M 405.933594 1185.601562 L 226.207031 1185.601562 C 220.957031 1185.601562 215.917969 1181.339844 214.953125 1176.09375 C 213.988281 1170.84375 217.460938 1166.585938 222.710938 1166.585938 L 402.441406 1166.585938 C 407.6875 1166.585938 412.730469 1170.84375 413.695312 1176.09375 C 414.660156 1181.339844 411.183594 1185.601562 405.933594 1185.601562 " fill-opacity="1" fill-rule="nonzero"/><path fill="#adede6" d="M 502.328125 1227.042969 L 233.828125 1227.042969 C 228.578125 1227.042969 223.539062 1222.792969 222.574219 1217.542969 C 221.609375 1212.289062 225.082031 1208.035156 230.332031 1208.035156 L 498.832031 1208.035156 C 504.082031 1208.035156 509.125 1212.289062 510.085938 1217.542969 C 511.054688 1222.792969 507.578125 1227.042969 502.328125 1227.042969 " fill-opacity="1" fill-rule="nonzero"/><path fill="#000000" d="M 281.242188 927.238281 C 263.039062 927.238281 246.359375 910.175781 247.5 892.515625 C 249.382812 863.484375 258.339844 825.980469 291.441406 820.679688 C 325.941406 815.164062 353.089844 858.480469 368.535156 891.546875 C 376.902344 909.460938 366.613281 927.238281 347.996094 927.238281 L 281.242188 927.238281 " fill-opacity="1" fill-rule="nonzero"/><path fill="#00d7c0" d="M 320.230469 984.492188 C 346.378906 983.851562 362.933594 978.191406 378.578125 960.332031 C 355.429688 953.546875 344.558594 953.25 318.542969 953.25 C 292.527344 953.25 276.976562 954.550781 256.324219 961.335938 C 256.324219 961.335938 285.582031 985.339844 320.230469 984.492188 " fill-opacity="1" fill-rule="nonzero"/><path fill="#000000" d="M 255.863281 963.898438 C 254.789062 963.898438 253.804688 963.195312 253.5 962.101562 C 253.128906 960.800781 253.894531 959.441406 255.199219 959.066406 C 274.765625 953.570312 296.078125 950.78125 318.542969 950.78125 C 338.753906 950.78125 358.941406 953.054688 378.53125 957.53125 C 379.855469 957.835938 380.683594 959.148438 380.382812 960.484375 C 380.078125 961.804688 378.765625 962.628906 377.433594 962.332031 C 358.203125 957.933594 338.386719 955.707031 318.542969 955.707031 C 296.527344 955.707031 275.664062 958.429688 256.53125 963.8125 C 256.3125 963.871094 256.089844 963.898438 255.863281 963.898438 " fill-opacity="1" fill-rule="nonzero"/><path fill="#ffffff" d="M 322.554688 971.648438 C 313.335938 971.648438 304.496094 964.175781 302.800781 954.964844 L 284.4375 855.085938 L 317.804688 855.085938 L 336.167969 954.964844 C 337.863281 964.175781 331.769531 971.648438 322.554688 971.648438 " fill-opacity="1" fill-rule="nonzero"/><path fill="#000000" d="M 287.390625 857.542969 L 305.222656 954.519531 C 306.707031 962.609375 314.484375 969.183594 322.550781 969.183594 C 326.214844 969.183594 329.382812 967.804688 331.476562 965.28125 C 333.636719 962.699219 334.441406 959.1875 333.75 955.402344 L 315.753906 857.542969 Z M 322.550781 974.105469 C 312.222656 974.105469 302.273438 965.722656 300.378906 955.402344 L 282.015625 855.523438 C 281.882812 854.808594 282.078125 854.066406 282.546875 853.507812 C 283.011719 852.945312 283.703125 852.617188 284.4375 852.617188 L 317.804688 852.617188 C 318.992188 852.617188 320.011719 853.46875 320.226562 854.636719 L 338.589844 954.519531 C 339.554688 959.757812 338.371094 964.703125 335.261719 968.4375 C 332.210938 972.09375 327.699219 974.105469 322.550781 974.105469 " fill-opacity="1" fill-rule="nonzero"/><path fill="#ffffff" d="M 298.972656 911.195312 C 287.171875 905.84375 277.472656 894.003906 274.945312 880.25 L 271.683594 862.511719 C 268.117188 843.113281 279.707031 827.394531 297.5625 827.394531 C 314.265625 827.394531 330.511719 842.097656 333.847656 860.234375 L 337.527344 880.25 C 340.976562 899.019531 329.765625 914.226562 312.484375 914.226562 L 298.972656 911.195312 " fill-opacity="1" fill-rule="nonzero"/><path fill="#000000" d="M 312.484375 916.695312 C 311.125 916.695312 310.023438 915.589844 310.023438 914.226562 C 310.023438 912.875 311.125 911.769531 312.484375 911.769531 C 319.519531 911.769531 325.730469 908.964844 329.972656 903.867188 C 334.863281 898 336.734375 889.554688 335.105469 880.695312 L 331.425781 860.683594 C 328.300781 843.6875 313.109375 829.863281 297.5625 829.863281 C 290.265625 829.863281 283.824219 832.769531 279.421875 838.054688 C 274.355469 844.132812 272.417969 852.890625 274.105469 862.066406 L 277.367188 879.8125 C 279.667969 892.328125 288.546875 903.769531 299.988281 908.949219 C 301.230469 909.515625 301.777344 910.972656 301.214844 912.207031 C 300.652344 913.449219 299.199219 913.996094 297.957031 913.429688 C 285.09375 907.605469 275.109375 894.75 272.523438 880.695312 L 269.261719 862.957031 C 267.308594 852.339844 269.636719 842.113281 275.644531 834.902344 C 280.996094 828.472656 288.78125 824.933594 297.5625 824.933594 C 315.371094 824.933594 332.734375 840.574219 336.269531 859.789062 L 339.949219 879.8125 C 341.839844 890.105469 339.582031 900.023438 333.757812 907.015625 C 328.558594 913.253906 321.007812 916.695312 312.484375 916.695312 " fill-opacity="1" fill-rule="nonzero"/><path fill="#000000" d="M 269.691406 852.980469 L 334.710938 852.980469 C 334.710938 852.980469 331.054688 840.148438 317.839844 831.558594 C 306.597656 824.257812 293.261719 823.558594 282.96875 828.597656 C 275.988281 832.011719 269.253906 838.15625 269.820312 849.113281 L 269.691406 852.980469 " fill-opacity="1" fill-rule="nonzero"/><path fill="#000000" d="M 307.835938 894.90625 C 307.835938 894.90625 307.835938 894.90625 307.832031 894.90625 C 303.78125 894.90625 300.023438 893.277344 297.253906 890.328125 C 296.324219 889.332031 296.371094 887.777344 297.363281 886.839844 C 298.351562 885.921875 299.914062 885.964844 300.84375 886.953125 C 302.675781 888.910156 305.15625 889.980469 307.835938 889.980469 C 310.511719 889.980469 312.996094 888.910156 314.828125 886.953125 C 315.757812 885.964844 317.320312 885.910156 318.304688 886.851562 C 319.300781 887.777344 319.347656 889.332031 318.417969 890.328125 C 315.644531 893.277344 311.886719 894.90625 307.835938 894.90625 " fill-opacity="1" fill-rule="nonzero"/><path fill="#000000" d="M 320.753906 986.671875 C 292.535156 986.671875 262.351562 974.25 239.285156 950.453125 C 217.746094 928.242188 205.859375 899.59375 206.667969 871.863281 C 207.304688 850 215.96875 830.324219 231.070312 816.457031 C 266.519531 783.914062 327.878906 790.992188 367.855469 832.234375 C 381.128906 845.925781 390.910156 862.265625 396.140625 879.488281 C 396.535156 880.789062 395.800781 882.164062 394.5 882.5625 C 393.210938 882.953125 391.824219 882.21875 391.429688 880.917969 C 386.425781 864.445312 377.054688 848.789062 364.320312 835.652344 C 326.183594 796.3125 267.898438 789.324219 234.398438 820.085938 C 220.285156 833.035156 212.183594 851.476562 211.589844 872.003906 C 210.816406 898.414062 222.203125 925.757812 242.816406 947.027344 C 280.957031 986.375 339.238281 993.355469 372.738281 962.597656 C 387.140625 949.382812 395.25 930.53125 395.578125 909.523438 C 395.597656 908.175781 396.695312 907.097656 398.035156 907.097656 C 398.050781 907.097656 398.0625 907.097656 398.078125 907.097656 C 399.4375 907.121094 400.519531 908.238281 400.5 909.59375 C 400.152344 931.972656 391.472656 952.082031 376.070312 966.230469 C 361.078125 979.996094 341.441406 986.671875 320.753906 986.671875 " fill-opacity="1" fill-rule="nonzero"/><path fill="#00d7c0" d="M 779.550781 1117.460938 C 779.550781 1123.199219 774.894531 1127.855469 769.15625 1127.855469 C 763.410156 1127.855469 758.765625 1123.199219 758.765625 1117.460938 C 758.765625 1111.722656 763.410156 1107.070312 769.15625 1107.070312 C 774.894531 1107.070312 779.550781 1111.722656 779.550781 1117.460938 " fill-opacity="1" fill-rule="nonzero"/><path fill="#00d7c0" d="M 818.933594 1117.460938 C 818.933594 1123.199219 814.28125 1127.855469 808.542969 1127.855469 C 802.804688 1127.855469 798.148438 1123.199219 798.148438 1117.460938 C 798.148438 1111.722656 802.804688 1107.070312 808.542969 1107.070312 C 814.28125 1107.070312 818.933594 1111.722656 818.933594 1117.460938 " fill-opacity="1" fill-rule="nonzero"/><path fill="#00d7c0" d="M 858.320312 1117.460938 C 858.320312 1123.199219 853.664062 1127.855469 847.925781 1127.855469 C 842.1875 1127.855469 837.535156 1123.199219 837.535156 1117.460938 C 837.535156 1111.722656 842.1875 1107.070312 847.925781 1107.070312 C 853.664062 1107.070312 858.320312 1111.722656 858.320312 1117.460938 " fill-opacity="1" fill-rule="nonzero"/><path fill="#00d7c0" d="M 897.710938 1117.460938 C 897.710938 1123.199219 893.058594 1127.855469 887.3125 1127.855469 C 881.570312 1127.855469 876.917969 1123.199219 876.917969 1117.460938 C 876.917969 1111.722656 881.570312 1107.070312 887.3125 1107.070312 C 893.058594 1107.070312 897.710938 1111.722656 897.710938 1117.460938 " fill-opacity="1" fill-rule="nonzero"/><path fill="#00d7c0" d="M 799.242188 1204.609375 C 799.242188 1210.355469 794.589844 1215.007812 788.851562 1215.007812 C 783.109375 1215.007812 778.457031 1210.355469 778.457031 1204.609375 C 778.457031 1198.871094 783.109375 1194.214844 788.851562 1194.214844 C 794.589844 1194.214844 799.242188 1198.871094 799.242188 1204.609375 " fill-opacity="1" fill-rule="nonzero"/><path fill="#00d7c0" d="M 838.625 1204.609375 C 838.625 1210.355469 833.972656 1215.007812 828.230469 1215.007812 C 822.496094 1215.007812 817.84375 1210.355469 817.84375 1204.609375 C 817.84375 1198.871094 822.496094 1194.214844 828.230469 1194.214844 C 833.972656 1194.214844 838.625 1198.871094 838.625 1204.609375 " fill-opacity="1" fill-rule="nonzero"/><path fill="#00d7c0" d="M 878.011719 1204.609375 C 878.011719 1210.355469 873.359375 1215.007812 867.617188 1215.007812 C 861.878906 1215.007812 857.222656 1210.355469 857.222656 1204.609375 C 857.222656 1198.871094 861.878906 1194.214844 867.617188 1194.214844 C 873.359375 1194.214844 878.011719 1198.871094 878.011719 1204.609375 " fill-opacity="1" fill-rule="nonzero"/><path fill="#00d7c0" d="M 917.402344 1204.609375 C 917.402344 1210.355469 912.75 1215.007812 907.011719 1215.007812 C 901.265625 1215.007812 896.609375 1210.355469 896.609375 1204.609375 C 896.609375 1198.871094 901.265625 1194.214844 907.011719 1194.214844 C 912.75 1194.214844 917.402344 1198.871094 917.402344 1204.609375 " fill-opacity="1" fill-rule="nonzero"/><path fill="#000000" d="M 947.824219 295.492188 L 868.6875 295.492188 C 852.480469 295.492188 841.136719 279.46875 846.527344 264.179688 L 865.726562 209.6875 L 965.175781 224.929688 L 965.175781 278.125 C 965.175781 287.71875 957.414062 295.492188 947.824219 295.492188 " fill-opacity="1" fill-rule="nonzero"/><path fill="#000000" d="M 965.179688 224.925781 C 965.179688 253.027344 942.398438 275.8125 914.300781 275.8125 C 886.1875 275.8125 863.402344 253.027344 863.402344 224.925781 C 863.402344 196.820312 886.1875 174.039062 914.300781 174.039062 C 942.398438 174.039062 965.179688 196.820312 965.179688 224.925781 " fill-opacity="1" fill-rule="nonzero"/><path fill="#ffffff" d="M 1124.335938 633.984375 L 1115.226562 703.847656 L 1150.261719 730.488281 L 1169.011719 655.550781 L 1124.335938 633.984375 " fill-opacity="1" fill-rule="nonzero"/><path fill="#000000" d="M 1117.839844 702.765625 L 1148.769531 726.273438 L 1166.136719 656.90625 L 1126.339844 637.6875 Z M 1150.25 732.953125 C 1149.714844 732.953125 1149.195312 732.773438 1148.761719 732.453125 L 1113.726562 705.816406 C 1113.03125 705.277344 1112.664062 704.414062 1112.773438 703.535156 L 1121.894531 633.675781 C 1121.996094 632.886719 1122.472656 632.199219 1123.160156 631.832031 C 1123.859375 631.449219 1124.699219 631.425781 1125.40625 631.78125 L 1170.082031 653.347656 C 1171.125 653.84375 1171.679688 655.019531 1171.398438 656.152344 L 1152.636719 731.09375 C 1152.441406 731.890625 1151.847656 732.535156 1151.066406 732.820312 C 1150.800781 732.902344 1150.53125 732.953125 1150.25 732.953125 " fill-opacity="1" fill-rule="nonzero"/><path fill="#000000" d="M 951.621094 587.746094 C 951.621094 587.746094 1112.613281 379.921875 1172.855469 405.570312 C 1233.113281 431.207031 1208.726562 600.519531 1171.578125 667.164062 L 1117.066406 652.992188 L 1117.066406 620.15625 L 1082.546875 681.230469 L 951.621094 587.746094 " fill-opacity="1" fill-rule="nonzero"/><path fill="#00d7c0" d="M 1168.894531 679.65625 C 1189.605469 694.105469 1239.636719 730.316406 1261.503906 761.007812 C 1266.835938 768.492188 1262.148438 778.964844 1253 779.894531 C 1220.261719 783.199219 1153.925781 778.332031 1107.253906 739.171875 C 1107.253906 739.171875 1107.882812 724.183594 1117.410156 697.488281 L 1142.234375 707.707031 L 1140.355469 703.9375 C 1137.527344 698.277344 1138.9375 691.417969 1143.761719 687.320312 L 1151.808594 680.472656 C 1156.667969 676.347656 1163.671875 676.011719 1168.894531 679.65625 " fill-opacity="1" fill-rule="nonzero"/><path fill="#ffffff" d="M 1224.359375 768.996094 C 1166.570312 768.996094 1114.488281 735.84375 1113.886719 735.445312 C 1112.746094 734.707031 1112.429688 733.1875 1113.15625 732.050781 C 1113.898438 730.90625 1115.417969 730.578125 1116.5625 731.3125 C 1117.246094 731.753906 1185.273438 775.039062 1250.945312 761.449219 C 1252.261719 761.167969 1253.574219 762.023438 1253.84375 763.363281 C 1254.125 764.6875 1253.269531 765.996094 1251.933594 766.265625 C 1242.734375 768.171875 1233.472656 768.996094 1224.359375 768.996094 " fill-opacity="1" fill-rule="nonzero"/><path fill="#ffffff" d="M 1180.960938 721.625 C 1180.371094 721.625 1179.78125 721.414062 1179.304688 720.992188 C 1178.296875 720.070312 1178.210938 718.515625 1179.128906 717.511719 L 1195.792969 698.996094 C 1196.707031 697.992188 1198.261719 697.914062 1199.277344 698.824219 C 1200.28125 699.726562 1200.359375 701.289062 1199.449219 702.300781 L 1182.78125 720.800781 C 1182.304688 721.34375 1181.628906 721.625 1180.960938 721.625 " fill-opacity="1" fill-rule="nonzero"/><path fill="#ffffff" d="M 1196.78125 732.945312 C 1196.132812 732.945312 1195.480469 732.703125 1195 732.183594 C 1194.0625 731.199219 1194.105469 729.648438 1195.09375 728.707031 L 1212.625 712.097656 C 1213.609375 711.160156 1215.164062 711.207031 1216.09375 712.1875 C 1217.035156 713.179688 1217 714.742188 1216.003906 715.664062 L 1198.476562 732.28125 C 1198 732.726562 1197.394531 732.945312 1196.78125 732.945312 " fill-opacity="1" fill-rule="nonzero"/><path fill="#ffffff" d="M 1247.652344 1021.332031 C 1247.652344 1023.082031 1285.957031 1106.660156 1285.957031 1106.660156 L 1242.425781 1110.144531 L 1212.816406 1038.75 L 1247.652344 1021.332031 " fill-opacity="1" fill-rule="nonzero"/><path fill="#000000" d="M 1250.109375 1021.328125 Z M 1250.109375 1021.332031 Z M 1215.96875 1039.925781 L 1244.007812 1107.554688 L 1282.246094 1104.488281 C 1256.910156 1049.179688 1248.890625 1030.953125 1246.355469 1024.730469 Z M 1242.421875 1112.605469 C 1241.425781 1112.605469 1240.53125 1112.011719 1240.144531 1111.089844 L 1210.539062 1039.695312 C 1210.050781 1038.5 1210.570312 1037.125 1211.722656 1036.550781 L 1246.542969 1019.132812 C 1247.304688 1018.753906 1248.210938 1018.792969 1248.9375 1019.246094 C 1249.535156 1019.609375 1249.941406 1020.210938 1250.070312 1020.886719 C 1251.242188 1024.605469 1273.457031 1073.472656 1288.191406 1105.632812 C 1288.523438 1106.367188 1288.488281 1107.214844 1288.082031 1107.90625 C 1287.667969 1108.597656 1286.949219 1109.054688 1286.15625 1109.113281 L 1242.617188 1112.601562 C 1242.550781 1112.605469 1242.484375 1112.605469 1242.421875 1112.605469 " fill-opacity="1" fill-rule="nonzero"/><path fill="#00d7c0" d="M 1245.910156 1089.246094 C 1245.910156 1089.246094 1254.613281 1068.351562 1277.253906 1078.796875 C 1277.253906 1078.796875 1318.808594 1138.824219 1334.246094 1188.386719 C 1338.617188 1202.398438 1324.226562 1215.03125 1310.84375 1208.992188 C 1279.53125 1194.855469 1230.445312 1165.171875 1202.375 1110.144531 C 1202.375 1110.144531 1211.082031 1087.507812 1225.011719 1077.058594 L 1245.910156 1089.246094 " fill-opacity="1" fill-rule="nonzero"/><path fill="#ffffff" d="M 1321.5 1196.339844 C 1309.777344 1196.339844 1266.808594 1190.492188 1210.824219 1113.335938 C 1210.03125 1112.238281 1210.277344 1110.691406 1211.375 1109.894531 C 1212.46875 1109.097656 1214.011719 1109.34375 1214.804688 1110.445312 C 1277.359375 1196.65625 1323.449219 1191.355469 1323.910156 1191.292969 C 1325.257812 1191.101562 1326.5 1192.039062 1326.695312 1193.386719 C 1326.886719 1194.722656 1325.960938 1195.964844 1324.617188 1196.164062 C 1324.363281 1196.203125 1323.292969 1196.339844 1321.5 1196.339844 " fill-opacity="1" fill-rule="nonzero"/><path fill="#ffffff" d="M 1285.953125 1149.175781 C 1285.113281 1149.175781 1284.28125 1148.734375 1283.820312 1147.953125 C 1283.140625 1146.78125 1283.535156 1145.269531 1284.710938 1144.589844 L 1305.609375 1132.394531 C 1306.777344 1131.714844 1308.292969 1132.105469 1308.976562 1133.28125 C 1309.65625 1134.453125 1309.261719 1135.964844 1308.085938 1136.648438 L 1287.1875 1148.839844 C 1286.804688 1149.0625 1286.375 1149.175781 1285.953125 1149.175781 " fill-opacity="1" fill-rule="nonzero"/><path fill="#ffffff" d="M 1275.511719 1133.503906 C 1274.628906 1133.503906 1273.785156 1133.035156 1273.335938 1132.210938 C 1272.695312 1131.011719 1273.140625 1129.519531 1274.339844 1128.871094 L 1296.980469 1116.679688 C 1298.179688 1116.042969 1299.675781 1116.484375 1300.316406 1117.683594 C 1300.957031 1118.882812 1300.511719 1120.375 1299.3125 1121.019531 L 1276.671875 1133.207031 C 1276.300781 1133.40625 1275.902344 1133.503906 1275.511719 1133.503906 " fill-opacity="1" fill-rule="nonzero"/><path fill="#000000" d="M 1261.574219 1037.011719 L 1202.367188 1054.421875 C 1202.367188 1054.421875 1094.40625 826.308594 1063.058594 793.222656 C 1031.726562 760.136719 970.773438 706.15625 906.34375 687.003906 C 841.910156 667.851562 841.910156 619.089844 841.910156 619.089844 L 982.484375 568.855469 C 982.484375 568.855469 1104.851562 653.921875 1155.347656 728.792969 C 1205.855469 803.671875 1261.574219 1037.011719 1261.574219 1037.011719 " fill-opacity="1" fill-rule="nonzero"/><path fill="#ffffff" d="M 1105.515625 673.183594 C 1104.882812 673.183594 1104.234375 672.933594 1103.753906 672.4375 C 1087.445312 655.640625 1039.160156 615.074219 1038.675781 614.660156 C 1037.632812 613.78125 1037.5 612.242188 1038.378906 611.195312 C 1039.242188 610.15625 1040.800781 610.019531 1041.839844 610.894531 C 1042.335938 611.300781 1090.8125 652.035156 1107.292969 669 C 1108.230469 669.980469 1108.210938 671.539062 1107.238281 672.488281 C 1106.765625 672.949219 1106.140625 673.183594 1105.515625 673.183594 " fill-opacity="1" fill-rule="nonzero"/><path fill="#00d7c0" d="M 944.414062 312.511719 C 944.414062 312.511719 996.597656 320.0625 1028.960938 357.878906 C 1061.316406 395.695312 1110.519531 469.769531 1111.773438 524.546875 C 1113.03125 579.332031 1043.566406 558.898438 1014.929688 519.164062 C 986.28125 479.429688 944.414062 312.511719 944.414062 312.511719 " fill-opacity="1" fill-rule="nonzero"/><path fill="#00d7c0" d="M 833.007812 322.625 C 833.007812 322.625 908.941406 292.917969 992.210938 328.289062 L 1037.800781 556.15625 C 920.695312 612.765625 890.230469 762.355469 839.742188 641.75 C 823.519531 602.988281 823.46875 557.628906 823.519531 549.78125 L 833.007812 322.625 " fill-opacity="1" fill-rule="nonzero"/><path fill="#ffffff" d="M 1104.390625 422.238281 C 1104.390625 422.238281 1116.921875 514.171875 1111.582031 530.636719 C 1106.234375 547.105469 1098.761719 566.984375 1078.558594 549.148438 C 1058.351562 531.308594 1081.480469 442.550781 1081.480469 442.550781 L 1104.390625 422.238281 " fill-opacity="1" fill-rule="nonzero"/><path fill="#000000" d="M 1083.679688 443.886719 C 1077.292969 468.734375 1064.695312 533.625 1080.1875 547.300781 C 1086.003906 552.429688 1090.925781 554.492188 1094.851562 553.417969 C 1101.699219 551.546875 1105.878906 540.28125 1109.246094 529.871094 C 1113.140625 517.855469 1106.890625 459.902344 1102.5625 427.144531 Z M 1092.675781 558.628906 C 1087.921875 558.628906 1082.730469 556.109375 1076.933594 550.988281 C 1055.828125 532.359375 1078.144531 445.601562 1079.105469 441.921875 C 1079.230469 441.445312 1079.492188 441.023438 1079.851562 440.703125 L 1102.761719 420.394531 C 1103.441406 419.789062 1104.394531 419.609375 1105.246094 419.929688 C 1106.097656 420.238281 1106.703125 421 1106.832031 421.902344 C 1107.339844 425.679688 1119.378906 514.585938 1113.933594 531.394531 C 1109.984375 543.554688 1105.359375 555.644531 1096.144531 558.164062 C 1095.015625 558.476562 1093.859375 558.628906 1092.675781 558.628906 " fill-opacity="1" fill-rule="nonzero"/><path fill="#ffffff" d="M 1054.4375 475.601562 L 1049.679688 472.800781 L 1104.890625 371.882812 L 1144.527344 371.269531 L 1149.285156 374.070312 L 1054.4375 475.601562 " fill-opacity="1" fill-rule="nonzero"/><path fill="#000000" d="M 1094.074219 474.988281 L 1054.4375 475.601562 L 1109.648438 374.683594 L 1149.285156 374.070312 L 1094.074219 474.988281 " fill-opacity="1" fill-rule="nonzero"/><path fill="#000000" d="M 1018.464844 492.1875 C 1017.316406 492.1875 1016.304688 491.394531 1016.054688 490.230469 L 993.578125 383.011719 C 993.296875 381.683594 994.144531 380.375 995.480469 380.097656 C 996.800781 379.820312 998.117188 380.671875 998.394531 382 L 1020.875 489.21875 C 1021.160156 490.554688 1020.300781 491.855469 1018.96875 492.140625 C 1018.796875 492.171875 1018.628906 492.1875 1018.464844 492.1875 " fill-opacity="1" fill-rule="nonzero"/><path fill="#00d7c0" d="M 936.617188 507.996094 C 924.242188 507.445312 911.707031 505.050781 899.613281 499.976562 C 834.34375 472.601562 873.132812 367.023438 873.132812 367.023438 L 833.003906 322.628906 C 725.523438 407.671875 765.144531 539.859375 858.582031 570.609375 C 891.152344 581.332031 921.617188 579.3125 948.359375 571.175781 C 924.65625 546.453125 929.796875 522.269531 936.617188 507.996094 " fill-opacity="1" fill-rule="nonzero"/><path fill="#ffffff" d="M 1093.816406 442 L 1090.75 422.980469 L 1057.558594 459.8125 L 1067.019531 441.828125 C 1067.019531 441.828125 1058.988281 444.535156 1052.601562 451.382812 C 1046.402344 458.023438 1038.902344 478.238281 1038.445312 479.457031 C 1025.230469 487.152344 981.929688 509.988281 936.625 507.996094 C 929.800781 522.265625 922.53125 544.125 946.230469 568.851562 C 1009.707031 549.523438 1054.359375 497.980469 1054.359375 497.980469 C 1083.359375 483.445312 1093.816406 442 1093.816406 442 " fill-opacity="1" fill-rule="nonzero"/><path fill="#000000" d="M 938.152344 510.519531 C 931.414062 525.183594 926.996094 544.441406 946.953125 566.054688 C 1008.222656 546.820312 1052.046875 496.882812 1052.480469 496.378906 C 1052.699219 496.136719 1052.953125 495.9375 1053.246094 495.792969 C 1079.285156 482.738281 1090.023438 446.460938 1091.285156 441.886719 L 1089.125 428.457031 L 1059.378906 461.472656 C 1058.542969 462.398438 1057.160156 462.558594 1056.140625 461.84375 C 1055.125 461.136719 1054.789062 459.777344 1055.367188 458.675781 L 1061.273438 447.449219 C 1059.082031 448.835938 1056.621094 450.6875 1054.386719 453.074219 C 1049.660156 458.128906 1043.402344 473.109375 1040.746094 480.320312 C 1040.546875 480.859375 1040.179688 481.308594 1039.679688 481.597656 C 1027.308594 488.800781 983.78125 511.972656 938.152344 510.519531 Z M 946.210938 571.320312 C 945.554688 571.320312 944.910156 571.054688 944.433594 570.5625 C 920.511719 545.589844 926.5 523.441406 934.390625 506.941406 C 934.816406 506.046875 935.699219 505.492188 936.730469 505.539062 C 980.757812 507.496094 1023.265625 485.359375 1036.441406 477.78125 C 1038.105469 473.359375 1044.839844 456.089844 1050.792969 449.714844 C 1057.527344 442.5 1065.867188 439.625 1066.226562 439.507812 C 1067.175781 439.183594 1068.226562 439.476562 1068.886719 440.246094 C 1069.53125 441.011719 1069.65625 442.09375 1069.191406 442.984375 L 1068.878906 443.574219 L 1088.90625 421.34375 C 1089.542969 420.636719 1090.523438 420.363281 1091.4375 420.636719 C 1092.347656 420.898438 1093.023438 421.664062 1093.167969 422.59375 L 1096.238281 441.621094 C 1096.285156 441.949219 1096.269531 442.289062 1096.191406 442.617188 C 1095.753906 444.34375 1085.226562 484.925781 1055.882812 499.972656 C 1051.644531 504.707031 1007.511719 552.769531 946.9375 571.214844 C 946.695312 571.285156 946.453125 571.320312 946.210938 571.320312 " fill-opacity="1" fill-rule="nonzero"/><path fill="#000000" d="M 913.476562 508.234375 C 913.214844 508.234375 912.949219 508.1875 912.679688 508.101562 C 861.933594 490.792969 858.171875 448.894531 860.554688 414.332031 C 860.648438 412.976562 861.855469 411.957031 863.183594 412.046875 C 864.539062 412.136719 865.558594 413.316406 865.472656 414.671875 C 862.054688 464.058594 876.65625 490.613281 914.273438 503.4375 C 915.558594 503.878906 916.246094 505.277344 915.8125 506.5625 C 915.464844 507.585938 914.503906 508.234375 913.476562 508.234375 " fill-opacity="1" fill-rule="nonzero"/><path fill="#000000" d="M 910.257812 580.175781 C 910.214844 580.175781 910.160156 580.175781 910.109375 580.175781 C 869.574219 577.757812 843.90625 571.460938 829.304688 560.34375 C 828.226562 559.523438 828.015625 557.976562 828.84375 556.890625 C 829.667969 555.8125 831.214844 555.605469 832.292969 556.429688 C 845.882812 566.777344 871.433594 572.941406 910.40625 575.253906 C 911.761719 575.335938 912.792969 576.5 912.710938 577.859375 C 912.636719 579.160156 911.550781 580.175781 910.257812 580.175781 " fill-opacity="1" fill-rule="nonzero"/><path fill="#ffffff" d="M 936.148438 280.273438 C 953.21875 276.890625 960.332031 223.769531 960.570312 223.027344 C 960.578125 222.996094 960.578125 222.96875 960.578125 222.953125 L 905.078125 219.367188 C 906.148438 222.289062 907.210938 224.949219 907.5 226.789062 C 908.527344 233.042969 898.082031 225.222656 893.5625 227.246094 C 890.570312 228.578125 889.425781 232.652344 892.347656 238.214844 C 894.179688 241.699219 897.226562 245.09375 899.960938 246.71875 C 900.386719 250.011719 901.257812 253.277344 902.484375 256.410156 L 902.355469 256.347656 L 887.402344 302.453125 L 857.007812 315.976562 C 930.570312 348.632812 953.863281 316.101562 953.863281 316.101562 L 925.921875 305.519531 L 929.078125 280.464844 C 931.402344 280.785156 933.773438 280.75 936.148438 280.273438 " fill-opacity="1" fill-rule="nonzero"/><path fill="#000000" d="M 936.152344 280.261719 L 936.171875 280.261719 Z M 863.164062 315.929688 C 917.703125 338.59375 942.296875 323.429688 949.507812 317.074219 L 925.0625 307.8125 C 923.992188 307.402344 923.347656 306.332031 923.480469 305.203125 L 926.644531 280.152344 C 926.726562 279.496094 927.074219 278.90625 927.582031 278.507812 C 928.101562 278.105469 928.761719 277.933594 929.40625 278.015625 C 931.554688 278.304688 933.652344 278.253906 935.679688 277.851562 C 944.226562 276.152344 952.625 256.046875 957.714844 225.222656 L 908.703125 222.058594 C 909.285156 223.683594 909.738281 225.132812 909.9375 226.386719 C 910.328125 228.777344 909.492188 230.078125 908.710938 230.746094 C 906.71875 232.476562 903.882812 231.574219 900.613281 230.550781 C 898.640625 229.921875 895.667969 228.984375 894.566406 229.484375 C 893.976562 229.75 893.558594 230.222656 893.332031 230.882812 C 892.8125 232.375 893.25 234.621094 894.53125 237.058594 C 896.121094 240.089844 898.878906 243.183594 901.21875 244.59375 C 901.867188 244.972656 902.3125 245.636719 902.402344 246.394531 C 902.804688 249.402344 903.59375 252.464844 904.785156 255.507812 C 905.101562 256.320312 904.964844 257.234375 904.4375 257.910156 L 889.757812 303.203125 C 889.542969 303.867188 889.050781 304.402344 888.414062 304.695312 Z M 915.121094 333.054688 C 900.394531 333.054688 881.050781 329.328125 856.015625 318.222656 C 855.136719 317.820312 854.5625 316.949219 854.5625 315.964844 C 854.5625 315.003906 855.136719 314.113281 856.015625 313.722656 L 885.414062 300.640625 L 899.804688 256.246094 C 898.820312 253.554688 898.113281 250.847656 897.6875 248.15625 C 894.847656 246.136719 891.984375 242.808594 890.167969 239.347656 C 887.695312 234.621094 887.988281 231.265625 888.675781 229.273438 C 889.347656 227.328125 890.722656 225.804688 892.558594 224.984375 C 895.378906 223.730469 898.941406 224.859375 902.09375 225.847656 C 902.964844 226.128906 904.128906 226.492188 904.984375 226.675781 C 904.683594 225.375 904.011719 223.539062 903.292969 221.613281 L 902.777344 220.203125 C 902.496094 219.421875 902.621094 218.550781 903.121094 217.886719 C 903.613281 217.210938 904.421875 216.859375 905.246094 216.90625 L 960.753906 220.476562 C 961.496094 220.53125 962.179688 220.910156 962.613281 221.523438 C 963.03125 222.140625 963.160156 222.914062 962.949219 223.628906 C 962.949219 223.667969 962.90625 223.964844 962.824219 224.429688 C 959.5625 244.890625 951.824219 279.671875 936.625 282.679688 C 934.871094 283.023438 933.0625 283.171875 931.238281 283.105469 L 928.617188 303.894531 L 954.742188 313.792969 C 955.453125 314.066406 956.007812 314.648438 956.226562 315.386719 C 956.453125 316.113281 956.316406 316.902344 955.871094 317.53125 C 955.207031 318.457031 944.253906 333.054688 915.121094 333.054688 " fill-opacity="1" fill-rule="nonzero"/><path fill="#ffffff" d="M 912.292969 267.121094 C 912.292969 267.121094 915.742188 279.398438 929.074219 280.46875 L 912.292969 267.121094 " fill-opacity="1" fill-rule="nonzero"/><path fill="#000000" d="M 929.089844 282.929688 C 929.015625 282.929688 928.953125 282.929688 928.886719 282.921875 C 913.996094 281.722656 910.082031 268.351562 909.925781 267.789062 C 909.554688 266.476562 910.320312 265.113281 911.628906 264.75 C 912.933594 264.382812 914.289062 265.140625 914.667969 266.441406 C 914.789062 266.882812 917.878906 277.09375 929.28125 278.011719 C 930.636719 278.117188 931.636719 279.304688 931.535156 280.667969 C 931.429688 281.953125 930.355469 282.929688 929.089844 282.929688 " fill-opacity="1" fill-rule="nonzero"/><path fill="#adede6" d="M 630.105469 1364.039062 C 630.105469 1364.039062 560.289062 1211.003906 600.339844 1012.605469 C 600.339844 1012.605469 708.546875 1103.285156 669.539062 1364.039062 L 630.105469 1364.039062 " fill-opacity="1" fill-rule="nonzero"/><path fill="#000000" d="M 631.71875 1361.582031 L 667.417969 1361.582031 C 686.96875 1228.613281 667.296875 1141.332031 647.285156 1091.457031 C 629.972656 1048.328125 609.566406 1025.171875 601.890625 1017.460938 C 582.417969 1117.660156 591.457031 1205.617188 602.585938 1262.078125 C 613.507812 1317.46875 628.484375 1354.050781 631.71875 1361.582031 Z M 669.539062 1366.503906 L 630.105469 1366.503906 C 629.140625 1366.503906 628.269531 1365.9375 627.871094 1365.058594 C 627.691406 1364.675781 610.152344 1325.816406 597.792969 1263.203125 C 586.390625 1205.449219 577.15625 1115 597.925781 1012.125 C 598.097656 1011.269531 598.707031 1010.570312 599.523438 1010.289062 C 600.339844 1010 601.257812 1010.160156 601.917969 1010.71875 C 603.046875 1011.664062 629.699219 1034.425781 651.851562 1089.621094 C 672.199219 1140.328125 692.210938 1229.164062 671.972656 1364.40625 C 671.796875 1365.613281 670.761719 1366.503906 669.539062 1366.503906 " fill-opacity="1" fill-rule="nonzero"/><path fill="#ffffff" d="M 647.183594 1350.550781 C 647.136719 1350.550781 647.09375 1350.539062 647.050781 1350.539062 C 645.6875 1350.46875 644.648438 1349.308594 644.722656 1347.949219 C 650.066406 1250.164062 605.960938 1041.367188 605.515625 1039.273438 C 605.234375 1037.941406 606.078125 1036.640625 607.414062 1036.351562 C 608.742188 1036.070312 610.050781 1036.921875 610.332031 1038.253906 C 610.777344 1040.351562 655.019531 1249.777344 649.644531 1348.214844 C 649.566406 1349.53125 648.484375 1350.550781 647.183594 1350.550781 " fill-opacity="1" fill-rule="nonzero"/><path fill="#ffffff" d="M 700.351562 1115.230469 C 700.351562 1115.230469 610.390625 1277.757812 664.503906 1348.082031 L 693.449219 1348.082031 C 693.449219 1348.082031 751.292969 1221.039062 700.351562 1115.230469 " fill-opacity="1" fill-rule="nonzero"/><path fill="#000000" d="M 665.730469 1345.621094 L 691.839844 1345.621094 C 697.835938 1331.519531 743.671875 1217.375 700.207031 1120.75 C 686.648438 1146.796875 619.5 1283.25 665.730469 1345.621094 Z M 693.449219 1350.550781 L 664.503906 1350.550781 C 663.738281 1350.550781 663.015625 1350.191406 662.554688 1349.582031 C 639.59375 1319.742188 638.664062 1270.941406 659.789062 1204.53125 C 675.410156 1155.449219 697.972656 1114.445312 698.191406 1114.035156 C 698.640625 1113.234375 699.457031 1112.726562 700.421875 1112.773438 C 701.335938 1112.792969 702.171875 1113.328125 702.566406 1114.164062 C 729.171875 1169.40625 725.878906 1230.367188 718.429688 1271.773438 C 710.371094 1316.539062 695.835938 1348.78125 695.6875 1349.105469 C 695.285156 1349.984375 694.417969 1350.550781 693.449219 1350.550781 " fill-opacity="1" fill-rule="nonzero"/><path fill="#000000" d="M 678.019531 1354.851562 C 676.699219 1354.851562 675.609375 1353.8125 675.558594 1352.484375 C 672.957031 1285.355469 697.667969 1116.570312 697.910156 1114.867188 C 698.109375 1113.53125 699.375 1112.585938 700.707031 1112.792969 C 702.050781 1112.996094 702.980469 1114.242188 702.785156 1115.589844 C 702.535156 1117.285156 677.890625 1285.621094 680.480469 1352.296875 C 680.53125 1353.648438 679.472656 1354.796875 678.117188 1354.847656 C 678.085938 1354.851562 678.046875 1354.851562 678.019531 1354.851562 " fill-opacity="1" fill-rule="nonzero"/><path fill="#ffffff" d="M 528.605469 1175.816406 C 528.605469 1175.816406 605.234375 1201.964844 632.984375 1356.75 L 602.839844 1356.75 C 602.839844 1356.75 539.941406 1271.742188 528.605469 1175.816406 " fill-opacity="1" fill-rule="nonzero"/><path fill="#000000" d="M 604.101562 1354.289062 L 630.035156 1354.289062 C 606.042969 1224.746094 547.101562 1187.519531 531.59375 1179.824219 C 543.316406 1266.769531 597.21875 1344.640625 604.101562 1354.289062 Z M 632.984375 1359.210938 L 602.839844 1359.210938 C 602.058594 1359.210938 601.324219 1358.835938 600.863281 1358.214844 C 600.230469 1357.359375 537.445312 1271.574219 526.160156 1176.105469 C 526.0625 1175.269531 526.398438 1174.433594 527.058594 1173.90625 C 527.714844 1173.371094 528.601562 1173.214844 529.398438 1173.492188 C 530.203125 1173.765625 549.441406 1180.539062 572.242188 1206.613281 C 593.09375 1230.46875 620.96875 1275.800781 635.410156 1356.320312 C 635.535156 1357.03125 635.339844 1357.769531 634.871094 1358.328125 C 634.402344 1358.890625 633.710938 1359.210938 632.984375 1359.210938 " fill-opacity="1" fill-rule="nonzero"/><path fill="#000000" d="M 616.511719 1354.851562 C 615.320312 1354.851562 614.28125 1354 614.078125 1352.789062 C 602.699219 1283.988281 553.390625 1214.621094 552.894531 1213.929688 C 552.101562 1212.824219 552.355469 1211.285156 553.464844 1210.496094 C 554.566406 1209.703125 556.105469 1209.953125 556.898438 1211.0625 C 557.398438 1211.761719 607.359375 1282.03125 618.941406 1351.984375 C 619.164062 1353.328125 618.25 1354.59375 616.910156 1354.816406 C 616.777344 1354.839844 616.636719 1354.851562 616.511719 1354.851562 " fill-opacity="1" fill-rule="nonzero"/><path fill="#00d7c0" d="M 558.167969 1344.460938 L 747.226562 1344.460938 L 751.464844 1433.890625 C 752.507812 1455.8125 735.003906 1474.160156 713.058594 1474.160156 L 605.082031 1474.160156 C 579.113281 1474.160156 558.066406 1453.09375 558.089844 1427.117188 L 558.167969 1344.460938 " fill-opacity="1" fill-rule="nonzero"/><path fill="#000000" d="M 1011.652344 877.8125 C 1010.316406 877.8125 1009.222656 876.742188 1009.195312 875.410156 L 1009.003906 866.675781 C 1008.976562 865.320312 1010.054688 864.199219 1011.414062 864.167969 C 1011.429688 864.167969 1011.449219 864.167969 1011.46875 864.167969 C 1012.792969 864.167969 1013.894531 865.230469 1013.925781 866.574219 L 1014.113281 875.304688 C 1014.140625 876.652344 1013.066406 877.78125 1011.703125 877.8125 C 1011.6875 877.8125 1011.664062 877.8125 1011.652344 877.8125 " fill-opacity="1" fill-rule="nonzero"/><path fill="#000000" d="M 1012.308594 908.363281 C 1010.976562 908.363281 1009.875 907.289062 1009.84375 905.949219 L 1009.664062 897.226562 C 1009.636719 895.863281 1010.710938 894.738281 1012.070312 894.710938 C 1012.082031 894.710938 1012.105469 894.710938 1012.121094 894.710938 C 1013.457031 894.710938 1014.546875 895.773438 1014.578125 897.125 L 1014.773438 905.851562 C 1014.796875 907.207031 1013.722656 908.328125 1012.363281 908.363281 C 1012.347656 908.363281 1012.332031 908.363281 1012.308594 908.363281 " fill-opacity="1" fill-rule="nonzero"/><path fill="#000000" d="M 992.527344 888.882812 C 991.171875 888.882812 990.082031 887.792969 990.058594 886.433594 C 990.058594 885.082031 991.152344 883.96875 992.511719 883.960938 L 1001.117188 883.894531 C 1001.121094 883.894531 1001.121094 883.894531 1001.128906 883.894531 C 1002.480469 883.894531 1003.578125 884.976562 1003.585938 886.328125 C 1003.601562 887.695312 1002.511719 888.800781 1001.148438 888.816406 L 992.546875 888.882812 C 992.539062 888.882812 992.53125 888.882812 992.527344 888.882812 " fill-opacity="1" fill-rule="nonzero"/><path fill="#000000" d="M 1022.632812 888.640625 C 1021.28125 888.640625 1020.175781 887.546875 1020.171875 886.199219 C 1020.152344 884.847656 1021.246094 883.726562 1022.609375 883.71875 L 1031.214844 883.652344 C 1032.542969 883.636719 1033.675781 884.730469 1033.695312 886.09375 C 1033.699219 887.457031 1032.605469 888.566406 1031.242188 888.582031 L 1022.648438 888.640625 C 1022.640625 888.640625 1022.640625 888.640625 1022.632812 888.640625 " fill-opacity="1" fill-rule="nonzero"/><path fill="#000000" d="M 1001.128906 1380.070312 C 1000.503906 1380.070312 999.871094 1379.832031 999.382812 1379.355469 C 998.429688 1378.390625 998.429688 1376.828125 999.382812 1375.871094 L 1174.492188 1200.765625 C 1175.449219 1199.808594 1177.011719 1199.808594 1177.972656 1200.765625 C 1178.933594 1201.726562 1178.933594 1203.289062 1177.972656 1204.25 L 1002.863281 1379.355469 C 1002.394531 1379.832031 1001.761719 1380.070312 1001.128906 1380.070312 " fill-opacity="1" fill-rule="nonzero"/><path fill="#000000" d="M 929.082031 1394.996094 C 928.457031 1394.996094 927.832031 1394.75 927.34375 1394.277344 C 926.386719 1393.308594 926.386719 1391.753906 927.34375 1390.789062 L 1025.359375 1292.78125 C 1026.320312 1291.820312 1027.878906 1291.820312 1028.839844 1292.78125 C 1029.800781 1293.738281 1029.800781 1295.300781 1028.839844 1296.257812 L 930.832031 1394.277344 C 930.347656 1394.75 929.714844 1394.996094 929.082031 1394.996094 " fill-opacity="1" fill-rule="nonzero"/><path fill="#000000" d="M 777.257812 163.234375 C 773.792969 163.234375 770.984375 166.046875 770.984375 169.503906 C 770.984375 172.964844 773.792969 175.78125 777.257812 175.78125 C 780.707031 175.78125 783.535156 172.964844 783.535156 169.503906 C 783.535156 166.046875 780.707031 163.234375 777.257812 163.234375 Z M 777.257812 180.703125 C 771.078125 180.703125 766.050781 175.675781 766.050781 169.503906 C 766.050781 163.335938 771.078125 158.308594 777.257812 158.308594 C 783.429688 158.308594 788.445312 163.335938 788.445312 169.503906 C 788.445312 175.675781 783.429688 180.703125 777.257812 180.703125 " fill-opacity="1" fill-rule="nonzero"/><path fill="#000000" d="M 1285.949219 609.046875 C 1272.160156 609.046875 1260.945312 597.828125 1260.945312 584.03125 C 1260.945312 570.253906 1272.160156 559.035156 1285.949219 559.035156 C 1287.304688 559.035156 1288.410156 560.128906 1288.410156 561.496094 C 1288.410156 562.855469 1287.304688 563.957031 1285.949219 563.957031 C 1274.871094 563.957031 1265.863281 572.964844 1265.863281 584.03125 C 1265.863281 595.117188 1274.871094 604.113281 1285.949219 604.113281 C 1297.027344 604.113281 1306.023438 595.117188 1306.023438 584.03125 C 1306.023438 582.675781 1307.136719 581.570312 1308.492188 581.570312 C 1309.847656 581.570312 1310.953125 582.675781 1310.953125 584.03125 C 1310.953125 597.828125 1299.738281 609.046875 1285.949219 609.046875 " fill-opacity="1" fill-rule="nonzero"/><path fill="#ffffff" d="M 553.042969 278.960938 C 553.042969 285.710938 547.566406 291.183594 540.824219 291.183594 C 534.074219 291.183594 528.605469 285.710938 528.605469 278.960938 C 528.605469 272.21875 534.074219 266.746094 540.824219 266.746094 C 547.566406 266.746094 553.042969 272.21875 553.042969 278.960938 " fill-opacity="1" fill-rule="nonzero"/><path fill="#000000" d="M 639.242188 293.410156 C 638.613281 293.410156 637.976562 293.160156 637.496094 292.679688 C 636.539062 291.726562 636.539062 290.167969 637.496094 289.203125 L 728.378906 198.320312 C 729.34375 197.363281 730.894531 197.363281 731.859375 198.320312 C 732.816406 199.285156 732.816406 200.84375 731.859375 201.800781 L 640.984375 292.679688 C 640.5 293.160156 639.867188 293.410156 639.242188 293.410156 " fill-opacity="1" fill-rule="nonzero"/><path fill="#000000" d="M 1244.988281 823.996094 C 1244.355469 823.996094 1243.722656 823.753906 1243.242188 823.277344 C 1242.277344 822.316406 1242.277344 820.757812 1243.242188 819.796875 L 1344.324219 718.714844 C 1345.28125 717.757812 1346.84375 717.757812 1347.800781 718.714844 C 1348.769531 719.671875 1348.769531 721.234375 1347.800781 722.191406 L 1246.726562 823.277344 C 1246.246094 823.753906 1245.613281 823.996094 1244.988281 823.996094 " fill-opacity="1" fill-rule="nonzero"/></svg>